<?xml version="1.0" standalone="no"?>
<!DOCTYPE svg PUBLIC "-//W3C//DTD SVG 20010904//EN"
 "http://www.w3.org/TR/2001/REC-SVG-20010904/DTD/svg10.dtd">
<svg version="1.0" xmlns="http://www.w3.org/2000/svg"
 width="506.000000pt" height="255.000000pt" viewBox="0 0 506.000000 255.000000"
 preserveAspectRatio="xMidYMid meet">

<g transform="translate(0.000000,255.000000) scale(0.100000,-0.100000)"
fill="#000000" stroke="none">
<path d="M0 1275 l0 -1275 2530 0 2530 0 0 1275 0 1275 -2530 0 -2530 0 0
-1275z m1349 810 c63 -32 123 -169 164 -376 37 -182 42 -239 23 -239 -12 0
-16 10 -16 39 0 91 -69 381 -110 460 -47 92 -91 120 -151 94 -22 -9 -36 -10
-42 -4 -7 7 1 15 24 25 44 19 73 20 108 1z m156 1 c39 -17 50 -44 13 -31 -13
5 -43 9 -68 10 -65 3 -68 5 -35 20 39 18 48 18 90 1z m-305 -31 c11 -13 9 -20
-11 -43 -53 -61 -73 -66 -103 -26 -22 31 -12 45 49 67 53 19 51 19 65 2z m421
-6 c55 -19 64 -32 48 -68 -8 -18 -21 -31 -32 -31 -19 0 -87 67 -87 86 0 26 20
30 71 13z m1390 -38 c63 -64 16 -171 -77 -171 -35 0 -94 59 -94 94 0 33 24 82
47 95 10 6 35 11 56 11 29 0 45 -7 68 -29z m-1665 -42 c-34 -61 -91 -253 -112
-381 -11 -62 -23 -108 -29 -108 -38 0 71 433 132 527 28 42 35 10 9 -38z
m-518 -123 c60 -31 94 -88 94 -157 0 -97 -74 -171 -171 -171 -50 0 -91 15 -91
33 0 8 13 9 38 3 54 -11 90 -7 125 14 64 37 87 124 52 192 -48 93 -194 93
-249 -1 -15 -26 -18 -44 -13 -95 4 -37 2 -64 -3 -64 -18 0 -30 39 -30 93 0 62
25 108 79 144 40 27 126 31 169 9z m-6 -83 c46 -51 46 -107 -1 -97 l-26 5 23
-20 23 -20 -23 -20 c-60 -56 -168 -8 -168 74 0 33 2 35 28 29 l27 -5 -23 19
-22 20 26 21 c40 32 103 29 136 -6z m-183 -199 c-18 -18 -36 -31 -41 -27 -6 3
5 20 23 39 18 18 36 31 41 27 6 -3 -5 -20 -23 -39z m-49 -55 c0 -5 -24 -38
-52 -73 -120 -145 -172 -269 -172 -411 -2 -180 71 -284 229 -331 67 -19 126
-14 183 15 69 35 71 46 11 76 -191 97 -291 355 -183 474 39 44 103 67 155 56
55 -12 128 -56 170 -103 52 -59 79 -135 79 -221 0 -58 -5 -79 -33 -135 l-34
-66 26 -1 c118 -6 206 24 277 95 50 50 94 137 94 187 0 32 -19 59 -41 59 -30
0 -74 26 -93 55 -24 37 -38 137 -30 212 6 57 9 63 29 63 22 0 22 -3 21 -97 -2
-158 22 -188 150 -188 66 0 76 3 100 26 20 20 27 41 34 95 5 37 6 90 3 116 -6
47 -5 48 21 48 l26 0 0 -107 c0 -154 -30 -206 -132 -228 -22 -4 -28 -12 -33
-43 -36 -222 -178 -345 -400 -345 l-90 0 -57 -42 c-99 -74 -205 -82 -324 -26
-107 51 -170 125 -199 236 -46 179 31 413 194 588 34 37 47 45 57 36 8 -6 14
-16 14 -20z m3049 21 c76 -11 211 -72 211 -95 0 -9 -16 -40 -35 -70 -34 -54
-65 -70 -91 -46 -19 18 -110 41 -161 41 -58 0 -107 -19 -117 -45 -21 -56 9
-82 147 -125 220 -70 300 -141 299 -266 -2 -216 -310 -316 -570 -185 -88 44
-91 51 -51 117 19 31 39 58 46 61 6 2 26 -3 43 -12 115 -60 259 -66 311 -14
50 50 2 105 -121 138 -99 28 -193 72 -233 109 -62 59 -84 161 -51 240 32 77
115 137 210 151 81 12 90 12 163 1z m819 0 c80 -13 196 -69 200 -96 1 -10 -12
-41 -31 -69 -38 -58 -49 -60 -139 -26 -103 38 -199 26 -228 -30 -26 -47 14
-79 150 -119 217 -65 314 -162 294 -296 -13 -88 -100 -170 -210 -199 -118 -30
-253 -13 -367 48 -80 42 -83 53 -42 115 19 28 39 54 45 57 6 4 31 -3 56 -15
80 -37 177 -54 232 -40 58 14 82 35 82 71 0 50 -30 68 -180 113 -47 14 -110
40 -140 58 -163 98 -156 309 14 395 76 39 162 49 264 33z m-1837 -16 c9 -11
10 -23 3 -42 -6 -15 -92 -153 -193 -306 -100 -154 -178 -283 -174 -287 5 -5
89 -10 188 -11 l180 -3 0 -85 0 -85 -325 0 -325 0 -8 25 c-8 23 3 44 85 170
237 363 288 441 288 445 0 3 -75 5 -166 5 -95 0 -174 4 -185 10 -16 9 -19 22
-19 80 0 110 -32 100 325 100 273 0 314 -2 326 -16z m404 -404 l0 -415 -67 -3
c-57 -2 -70 0 -88 18 -19 19 -20 31 -20 408 0 295 3 391 12 400 9 9 38 12 88
10 l75 -3 0 -415z"/>
<path d="M734 1699 c-10 -17 13 -36 27 -22 12 12 4 33 -11 33 -5 0 -12 -5 -16
-11z"/>
<path d="M683 1255 c-18 -8 -42 -29 -53 -47 -61 -97 41 -309 180 -375 75 -36
79 -35 113 31 23 42 32 76 35 122 4 57 1 72 -27 129 -35 71 -84 117 -151 140
-51 18 -56 18 -97 0z"/>
</g>
</svg>
