<?xml version="1.0" standalone="no"?>
<!DOCTYPE svg PUBLIC "-//W3C//DTD SVG 20010904//EN"
 "http://www.w3.org/TR/2001/REC-SVG-20010904/DTD/svg10.dtd">
<svg version="1.0" xmlns="http://www.w3.org/2000/svg"
 width="1200.000000pt" height="630.000000pt" viewBox="0 0 1200.000000 630.000000"
 preserveAspectRatio="xMidYMid meet">

<g transform="translate(0.000000,630.000000) scale(0.100000,-0.100000)"
fill="#000000" stroke="none">
<path d="M6225 4778 c-330 -20 -540 -168 -584 -412 -7 -39 -11 -302 -11 -766
0 -464 4 -727 11 -766 33 -183 166 -317 368 -373 182 -51 473 -51 694 0 l47
11 0 180 0 181 -32 -7 c-214 -45 -453 -55 -546 -22 -66 22 -118 73 -129 123
-4 21 -8 333 -8 693 0 600 1 658 17 686 26 47 73 82 136 100 77 23 328 14 456
-16 50 -11 91 -20 93 -20 2 0 3 83 3 184 l0 184 -92 17 c-123 22 -288 32 -423
23z"/>
<path d="M620 3605 l0 -1165 200 0 200 0 0 499 c0 529 -9 748 -40 1030 -11 96
-18 176 -16 178 1 2 34 -83 71 -189 102 -291 157 -435 378 -1000 l202 -518
203 0 202 0 0 1165 0 1165 -202 0 -201 0 6 -562 c6 -534 18 -797 47 -998 25
-171 11 -150 -84 125 -118 342 -119 344 -353 938 l-196 497 -209 0 -208 0 0
-1165z"/>
<path d="M2382 3818 c3 -874 5 -958 21 -1012 59 -199 208 -332 427 -381 97
-22 308 -22 406 -1 238 51 380 179 434 392 19 74 20 113 20 1016 l0 938 -200
0 -200 0 -2 -927 c-3 -864 -4 -930 -21 -960 -45 -84 -129 -119 -260 -110 -102
7 -159 39 -196 112 l-26 49 -3 918 -3 918 -200 0 -200 0 3 -952z"/>
<path d="M2880 4405 l0 -365 155 0 155 0 0 365 0 365 -155 0 -155 0 0 -365z"/>
<path d="M4050 3606 l0 -1166 200 0 200 0 2 438 3 437 86 3 87 3 10 -28 c5
-15 74 -201 152 -413 78 -212 147 -397 152 -412 l10 -28 219 0 c120 0 219 2
219 5 0 3 -81 207 -180 455 -99 248 -180 452 -180 455 0 3 20 14 45 26 96 45
171 136 212 256 25 74 31 682 8 773 -23 87 -48 134 -108 197 -63 67 -133 107
-233 135 -73 20 -108 22 -491 26 l-413 4 0 -1166z m770 792 c33 -17 51 -35 68
-68 21 -42 22 -55 22 -285 0 -252 -7 -303 -43 -343 -46 -50 -71 -56 -249 -60
l-168 -4 0 391 0 391 163 0 c149 0 167 -2 207 -22z"/>
<path d="M7050 3605 l0 -1165 200 0 200 0 0 480 0 480 290 0 290 0 0 -480 0
-480 205 0 205 0 0 1165 0 1165 -205 0 -205 0 0 -505 0 -505 -290 0 -290 0 0
505 0 505 -200 0 -200 0 0 -1165z"/>
<path d="M9462 4734 l-22 -15 0 -424 c0 -367 -2 -426 -15 -439 -9 -8 -22 -13
-30 -10 -12 5 -15 67 -17 380 -3 406 -2 395 -60 409 -21 5 -33 1 -52 -19 l-26
-25 0 -471 0 -470 49 0 c102 0 256 -21 297 -41 42 -20 84 -69 103 -122 6 -16
11 -103 11 -198 0 -156 -1 -169 -18 -169 -37 0 -42 19 -42 170 -1 265 -27 291
-297 298 l-163 4 0 150 c0 164 -5 183 -62 252 -39 47 -123 89 -150 75 -24 -13
-22 -44 4 -99 21 -42 23 -63 28 -335 l5 -290 57 -115 c32 -63 85 -166 118
-227 l60 -113 0 -230 0 -230 594 0 594 0 4 218 c3 244 -5 212 102 397 58 101
62 150 15 189 -29 25 -49 29 -129 27 -29 -1 -32 1 -14 8 39 17 110 23 147 13
l37 -10 0 68 c0 96 16 162 51 210 45 62 93 79 264 93 l145 11 -2 475 -3 474
-26 19 c-28 21 -57 18 -84 -8 -13 -13 -15 -69 -15 -379 0 -313 -2 -366 -15
-379 -19 -19 -41 -11 -49 17 -3 12 -6 207 -6 433 0 385 -1 412 -18 427 -23 21
-62 22 -88 3 -18 -14 -19 -33 -24 -428 l-5 -413 -25 0 -25 0 -5 352 c-6 390
-5 386 -70 386 -65 0 -64 6 -70 -406 l-5 -372 -25 0 -25 0 -5 316 c-5 346 -6
349 -64 349 -73 -1 -76 -14 -76 -395 l0 -324 57 -16 c117 -34 153 -72 153
-160 0 -138 -169 -323 -320 -350 -33 -6 -32 -5 15 20 153 81 244 196 245 310
0 91 -23 112 -167 154 -86 25 -112 46 -199 159 -37 48 -69 89 -71 92 -2 2 -17
-1 -33 -7 l-30 -11 0 227 c0 140 -4 240 -11 260 -11 32 -38 45 -80 39 -45 -6
-49 -33 -49 -335 l0 -282 -30 -21 -30 -21 0 364 c0 340 -1 366 -18 388 -23 27
-75 30 -100 5 -15 -15 -18 -55 -22 -369 -5 -334 -6 -352 -24 -355 -10 -2 -22
2 -27 10 -5 7 -9 194 -9 415 l0 402 -22 15 c-12 9 -32 16 -43 16 -11 0 -31 -7
-43 -16z"/>
<path d="M11252 4054 c-57 -28 -96 -69 -123 -129 -15 -33 -19 -66 -19 -190 l0
-150 -124 3 c-146 5 -224 -9 -267 -46 -50 -42 -59 -76 -59 -224 0 -73 -5 -151
-11 -173 -6 -22 -36 -82 -67 -134 -78 -134 -82 -151 -82 -383 l0 -198 274 0
275 0 3 238 3 237 72 130 c40 72 91 171 115 220 l43 90 5 285 c5 269 6 288 28
334 45 97 19 132 -66 90z"/>
<path d="M7352 2244 c-25 -17 -29 -56 -7 -74 34 -28 95 -5 95 37 0 17 -36 53
-53 53 -7 0 -23 -7 -35 -16z"/>
<path d="M1162 2223 c-5 -16 -13 -36 -17 -46 -7 -16 -3 -18 20 -15 20 2 34 15
52 46 l25 42 -35 0 c-29 0 -37 -5 -45 -27z"/>
<path d="M2220 2186 l0 -63 -54 -6 c-68 -7 -108 -27 -126 -64 -15 -33 -26
-227 -16 -307 10 -74 41 -106 105 -106 26 0 56 7 69 16 20 14 23 14 28 0 4
-11 19 -16 50 -16 l44 0 0 305 0 305 -50 0 -50 0 0 -64z m0 -301 l0 -154 -35
-7 c-61 -11 -66 0 -63 155 3 133 3 136 28 148 14 7 35 13 48 13 22 0 22 -1 22
-155z"/>
<path d="M2922 2223 c-5 -16 -13 -36 -17 -46 -7 -16 -3 -18 19 -15 19 2 34 15
52 46 l25 42 -34 0 c-29 0 -37 -5 -45 -27z"/>
<path d="M3452 2223 c-5 -16 -13 -36 -17 -46 -7 -16 -3 -18 19 -15 19 2 34 15
52 46 l25 42 -34 0 c-29 0 -37 -5 -45 -27z"/>
<path d="M7840 1945 l0 -305 45 0 45 0 0 305 0 305 -45 0 -45 0 0 -305z"/>
<path d="M8321 2228 c-24 -64 -23 -68 1 -68 17 0 31 12 50 45 l28 45 -35 0
c-28 0 -37 -5 -44 -22z"/>
<path d="M8860 1945 l0 -305 50 0 50 0 0 189 c0 118 4 192 10 196 19 12 72 8
81 -6 5 -8 9 -96 9 -196 l0 -183 45 0 45 0 0 206 c0 122 -4 213 -10 225 -19
35 -68 52 -132 45 l-58 -6 0 70 0 70 -45 0 -45 0 0 -305z"/>
<path d="M9720 1945 l0 -305 45 0 45 0 2 192 3 192 29 7 c16 5 37 4 48 -2 16
-9 18 -25 18 -199 l0 -190 51 0 51 0 -4 210 -3 210 -28 27 c-25 25 -34 28 -97
27 l-70 -1 0 69 0 68 -45 0 -45 0 0 -305z"/>
<path d="M10812 2205 l-22 -45 21 0 c11 0 30 10 40 23 l20 22 15 -22 c9 -13
27 -23 40 -23 l24 0 -22 45 c-20 41 -25 45 -58 45 -33 0 -38 -4 -58 -45z"/>
<path d="M11100 1945 l0 -305 100 0 c111 0 160 14 182 52 19 34 18 345 -1 381
-18 34 -70 51 -132 43 l-49 -7 0 71 0 70 -50 0 -50 0 0 -305z m198 -56 c3
-151 1 -156 -62 -166 l-36 -6 0 150 c0 82 3 153 7 157 4 4 25 6 48 4 l40 -3 3
-136z"/>
<path d="M600 1921 l0 -281 52 0 51 0 -7 183 c-4 100 -10 193 -13 207 -3 14
-2 22 3 17 7 -6 41 -94 137 -349 l22 -58 48 0 47 0 0 280 0 280 -46 0 -47 0 5
-207 6 -208 -34 95 c-18 52 -52 145 -76 205 l-44 110 -52 3 -52 3 0 -280z"/>
<path d="M4039 2173 c-5 -16 -12 -34 -14 -40 -2 -7 -16 -13 -30 -13 -23 0 -25
-4 -25 -40 0 -36 3 -40 25 -40 l25 0 0 -165 c0 -212 7 -230 100 -236 73 -5 80
-2 80 41 0 40 0 40 -39 40 -26 0 -41 5 -45 16 -3 9 -6 81 -6 160 l0 144 45 0
45 0 0 40 0 40 -45 0 -45 0 0 40 c0 38 -2 40 -30 40 -24 0 -33 -6 -41 -27z"/>
<path d="M7109 2173 c-5 -16 -12 -34 -14 -40 -2 -7 -16 -13 -30 -13 -23 0 -25
-4 -25 -40 0 -36 3 -40 25 -40 l25 0 0 -165 c0 -99 4 -174 11 -188 18 -39 59
-53 142 -49 25 2 27 5 27 42 0 39 -1 40 -33 40 -54 0 -57 9 -57 172 l0 148 45
0 45 0 0 40 0 40 -45 0 -45 0 0 40 c0 38 -2 40 -30 40 -24 0 -33 -6 -41 -27z"/>
<path d="M1741 2117 c-28 -8 -52 -22 -65 -40 -19 -26 -21 -42 -21 -202 0 -159
2 -175 20 -195 64 -72 212 -63 249 15 20 42 23 326 3 364 -28 55 -105 79 -186
58z m87 -83 c21 -14 22 -22 22 -154 0 -150 -6 -170 -55 -170 -48 0 -55 20 -55
166 0 121 2 136 20 154 24 24 38 25 68 4z"/>
<path d="M5488 2120 c-50 -9 -86 -35 -95 -68 -5 -15 -8 -95 -8 -179 0 -138 2
-154 21 -180 30 -41 67 -55 144 -55 98 0 110 6 110 50 l0 37 -79 -3 c-73 -4
-80 -2 -95 19 -9 13 -16 40 -16 61 l0 38 100 0 100 0 0 98 c0 57 -5 107 -13
121 -26 51 -92 75 -169 61z m73 -80 c15 -9 19 -22 19 -70 l0 -60 -55 0 -55 0
0 48 c0 77 37 110 91 82z"/>
<path d="M10193 2120 c-91 -21 -106 -61 -101 -271 3 -163 9 -177 75 -205 69
-29 172 -5 198 47 20 37 21 332 2 368 -26 51 -102 78 -174 61z m75 -86 c21
-14 22 -22 22 -154 0 -150 -6 -170 -55 -170 -48 0 -55 20 -55 166 0 121 2 136
20 154 24 24 38 25 68 4z"/>
<path d="M10823 2120 c-91 -21 -106 -61 -101 -271 3 -163 9 -177 75 -205 69
-29 172 -5 198 47 20 37 21 332 2 368 -26 51 -102 78 -174 61z m75 -86 c21
-14 22 -22 22 -154 0 -150 -6 -170 -55 -170 -48 0 -55 20 -55 166 0 121 2 136
20 154 24 24 38 25 68 4z"/>
<path d="M1063 2113 c-19 -4 -23 -11 -23 -43 l0 -39 70 6 c86 7 110 -8 110
-68 l0 -38 -70 -21 c-84 -25 -118 -52 -130 -104 -12 -54 3 -126 30 -148 28
-22 100 -24 140 -3 27 14 30 14 30 0 0 -11 11 -15 46 -15 l46 0 -4 203 c-4
221 -7 235 -64 262 -30 14 -127 18 -181 8z m157 -328 c0 -64 0 -64 -32 -73
-52 -14 -73 -1 -76 47 -4 49 8 68 52 80 55 16 56 16 56 -54z"/>
<path d="M1400 1880 l0 -240 50 0 50 0 0 185 c0 172 1 185 19 195 11 5 33 10
50 10 30 0 31 1 31 45 0 40 -2 45 -22 45 -13 -1 -34 -7 -48 -15 -32 -18 -40
-18 -40 0 0 11 -12 15 -45 15 l-45 0 0 -240z"/>
<path d="M2410 1880 l0 -240 50 0 50 0 0 189 c0 118 4 192 10 196 19 12 72 8
81 -6 5 -8 9 -96 9 -196 l0 -183 45 0 45 0 0 209 c0 195 -1 210 -20 234 -26
33 -73 42 -131 27 -31 -9 -44 -9 -47 -1 -2 6 -24 11 -48 11 l-44 0 0 -240z"/>
<path d="M2790 1988 c15 -73 38 -181 50 -240 20 -93 25 -108 42 -108 21 0 21
1 1 -102 -5 -27 -4 -28 38 -28 l44 0 61 305 61 305 -43 0 c-32 0 -44 -4 -48
-17 -8 -30 -35 -174 -46 -248 -22 -151 -20 -151 -51 25 -16 91 -31 182 -35
203 -6 37 -7 37 -54 37 l-48 0 28 -132z"/>
<path d="M3300 1938 c0 -101 5 -200 10 -220 19 -68 90 -97 167 -67 19 7 29 7
31 0 2 -6 24 -11 48 -11 l44 0 0 240 0 240 -50 0 -50 0 -2 -192 -3 -192 -32
-10 c-60 -17 -63 -7 -63 205 l0 189 -50 0 -50 0 0 -182z"/>
<path d="M3734 2106 c-47 -21 -64 -52 -64 -119 0 -54 3 -62 33 -90 18 -18 55
-45 83 -62 40 -25 50 -36 52 -62 4 -43 -22 -56 -105 -51 l-64 4 3 -40 3 -41
97 0 c93 0 98 1 127 29 65 63 48 164 -36 215 -84 52 -103 70 -103 101 0 40 29
54 102 47 l58 -5 0 38 c0 31 -4 39 -22 44 -40 10 -132 6 -164 -8z"/>
<path d="M4288 2113 c-13 -3 -18 -15 -18 -43 l0 -39 68 6 c81 6 101 -6 109
-64 l5 -40 -72 -22 c-40 -13 -83 -29 -96 -38 -50 -33 -55 -162 -9 -209 19 -19
35 -24 73 -24 27 0 57 6 68 15 25 19 34 19 34 0 0 -11 11 -15 40 -15 l40 0 0
203 c0 221 -2 232 -60 262 -28 14 -140 19 -182 8z m150 -330 l-3 -68 -38 -3
c-48 -4 -67 11 -67 52 0 41 12 58 52 73 58 21 59 19 56 -54z"/>
<path d="M4606 2058 c8 -35 31 -142 52 -238 l38 -175 60 -3 59 -3 50 238 51
238 -44 3 c-24 2 -45 2 -47 0 -2 -2 -14 -73 -28 -158 -14 -85 -29 -175 -33
-200 l-8 -45 -12 80 c-7 44 -23 135 -35 203 l-22 122 -48 0 -47 0 14 -62z"/>
<path d="M5130 1880 l0 -240 50 0 50 0 0 185 c0 172 1 185 19 195 11 5 33 10
50 10 30 0 31 1 31 45 0 51 -13 57 -64 30 -36 -19 -46 -19 -46 0 0 11 -12 15
-45 15 l-45 0 0 -240z"/>
<path d="M5750 1920 c0 -219 5 -246 55 -268 32 -15 75 -15 112 -1 19 7 29 7
31 0 2 -6 24 -11 48 -11 l44 0 0 240 0 240 -45 0 -45 0 0 -190 0 -190 -27 -11
c-37 -14 -69 -4 -77 23 -3 13 -6 101 -6 196 l0 172 -45 0 -45 0 0 -200z"/>
<path d="M6140 1880 l0 -240 45 0 45 0 0 190 0 189 33 9 c65 18 67 13 67 -198
l0 -190 50 0 50 0 2 192 3 192 29 7 c16 5 37 4 48 -2 16 -9 18 -25 18 -199 l0
-190 45 0 45 0 0 213 c-1 151 -4 217 -13 228 -31 40 -86 49 -156 24 -37 -13
-45 -13 -77 2 -29 14 -43 15 -87 6 -29 -6 -53 -7 -55 -2 -2 5 -24 9 -48 9
l-44 0 0 -240z"/>
<path d="M6743 2113 c-19 -4 -23 -11 -23 -43 l0 -38 74 5 c68 5 74 4 90 -18 9
-13 16 -38 16 -56 0 -31 -2 -33 -72 -54 -89 -26 -124 -56 -132 -112 -8 -55 8
-118 35 -139 26 -22 107 -24 135 -3 25 19 34 19 34 0 0 -11 12 -15 45 -15 l45
0 0 173 c-1 195 -8 239 -44 276 -23 23 -35 26 -104 28 -42 0 -87 -1 -99 -4z
m157 -321 c0 -68 -11 -82 -62 -82 -32 0 -40 4 -48 25 -7 19 -4 84 4 85 0 0 19
7 41 15 63 22 65 21 65 -43z"/>
<path d="M7610 2113 c-79 -26 -90 -54 -90 -232 0 -214 21 -244 168 -239 l77 3
3 42 3 41 -58 -5 c-94 -8 -98 -1 -98 156 0 94 4 134 13 143 8 8 36 12 78 11
l64 -1 0 38 c0 25 -5 40 -16 44 -18 7 -122 7 -144 -1z"/>
<path d="M8021 2098 c-4 -13 -23 -63 -41 -113 l-33 -89 42 -128 42 -128 50 0
c27 0 49 2 49 4 0 2 -21 59 -46 125 l-46 122 41 110 c23 60 41 112 41 114 0 3
-20 5 -45 5 -38 0 -47 -4 -54 -22z"/>
<path d="M8164 2103 c3 -10 23 -108 46 -218 53 -260 49 -245 72 -245 16 0 19
-5 15 -22 -4 -13 -9 -42 -13 -66 l-7 -43 44 3 43 3 58 285 c31 157 57 293 58
303 0 15 -7 18 -42 15 l-42 -3 -17 -85 c-10 -47 -25 -137 -35 -200 -16 -103
-19 -111 -25 -75 -4 22 -19 110 -34 195 -15 85 -29 158 -32 163 -2 4 -24 7
-49 7 -38 0 -45 -3 -40 -17z"/>
<path d="M8624 2113 c-12 -2 -34 -18 -50 -34 l-29 -30 -3 -153 c-5 -229 15
-260 166 -254 l77 3 3 42 3 41 -58 -5 c-94 -8 -98 -1 -98 156 0 94 4 134 13
143 8 8 36 12 78 11 l64 -1 0 38 c0 25 -5 40 -16 44 -17 6 -115 6 -150 -1z"/>
<path d="M9463 2105 c-57 -24 -67 -53 -71 -199 -5 -148 5 -201 44 -237 23 -22
34 -24 112 -24 l87 0 3 42 3 42 -54 -6 c-94 -10 -97 -5 -97 152 0 132 0 135
25 151 19 12 36 14 75 9 l50 -7 0 40 c0 27 -5 42 -16 46 -28 11 -128 6 -161
-9z"/>
<path d="M10470 1880 l0 -240 50 0 50 0 0 185 c0 172 1 185 19 195 11 5 33 10
50 10 30 0 31 1 31 45 0 40 -2 45 -22 45 -13 -1 -34 -7 -48 -15 -32 -18 -40
-18 -40 0 0 11 -12 15 -45 15 l-45 0 0 -240z"/>
<path d="M7340 1875 l0 -235 45 0 45 0 0 235 0 235 -45 0 -45 0 0 -235z"/>
</g>
</svg>
